<?xml version="1.0" encoding="UTF-8"?>
<svg xmlns="http://www.w3.org/2000/svg" version="1.1" viewBox="0 0 306 344.4">
  <defs>
    <style>
      .cls-1 {
        fill: #fff;
      }

      .cls-2 {
        fill: #f60;
      }

      .cls-3 {
        fill: #ffa466;
      }

      .cls-4 {
        fill: #ff8533;
      }
    </style>
  </defs>
  <!-- Generator: Adobe Illustrator 28.6.0, SVG Export Plug-In . SVG Version: 1.2.0 Build 709)  -->
  <g>
    <g id="Layer_1">
      <path class="cls-4" d="M306,245.3V99.2c0-4.3-1.5-8.9-3.9-13h0c0-.1,0-.1,0-.1l-149.2,86.1,149.1,86.1c2.4-4.2,3.9-8.8,3.9-13Z"/>
      <path class="cls-2" d="M153,172.2L3.9,258.3c2.4,4.2,5.7,7.8,9.3,9.9l126.5,73c7.3,4.2,19.2,4.2,26.5,0l126.5-73c3.7-2.1,7-5.7,9.4-9.8,0,0,0,0,0,0l-149.1-86.1Z"/>
      <path class="cls-3" d="M3.9,258.3C1.5,254.2,0,249.5,0,245.3V99.2c0-4.2,1.5-8.9,3.9-13.1,2.4-4.2,5.7-7.8,9.4-9.9L139.8,3.2c7.3-4.2,19.2-4.2,26.5,0l126.5,73c3.6,2.1,7,5.7,9.4,9.9L3.9,258.3Z"/>
      <path class="cls-1" d="M242,197.5v-12.5h-12.5v-26h12.5v-12.5h9.7c-11.4-43.9-51.3-76.3-98.7-76.3s-101.9,45.6-102,101.8h0v117.9l52.3,30.2v-58.9c14.7,8.2,31.7,12.9,49.7,12.9,47.6,0,87.6-32.6,98.8-76.7h-9.8ZM153.8,222.5c-27.9,0-50.5-22.6-50.5-50.5s22.6-50.5,50.5-50.5,50.5,22.6,50.5,50.5-22.6,50.5-50.5,50.5Z"/>
      <polygon class="cls-1" points="272.5 167 260 167 260 154.5 250 154.5 250 167 237.5 167 237.5 177 250 177 250 189.5 260 189.5 260 177 272.5 177 272.5 167"/>
    </g>
  </g>
</svg>